<svg width="52" height="38" viewBox="0 0 52 38" fill="none" xmlns="http://www.w3.org/2000/svg">
<path d="M46.0736 1.3127L17.8069 29.5794L6.0069 17.7794C5.38364 17.1561 4.53832 16.806 3.6569 16.806C2.77548 16.806 1.93016 17.1561 1.3069 17.7794C0.68364 18.4026 0.333496 19.248 0.333496 20.1294C0.333496 20.5658 0.419459 20.998 0.586476 21.4012C0.753492 21.8044 0.998292 22.1708 1.3069 22.4794L15.4402 36.6127C16.7402 37.9127 18.8402 37.9127 20.1402 36.6127L50.7402 6.0127C51.0509 5.70086 51.2966 5.33051 51.4633 4.92309C51.6299 4.51567 51.7141 4.07925 51.711 3.63908C51.7079 3.19891 51.6176 2.76373 51.4452 2.35869C51.2729 1.95366 51.0219 1.58681 50.7069 1.27937C49.4736 0.0127038 47.3736 0.012703 46.0736 1.3127Z" fill="#CD0000"/>
</svg>
