<svg width="127" height="50" viewBox="0 0 127 50" fill="none" xmlns="http://www.w3.org/2000/svg">
<g id="Group">
<g id="Group_2">
<path id="Vector" d="M38.5598 11.7026V13.5806C38.384 13.5525 38.2011 13.5384 38.0112 13.5384C35.8237 13.5384 34.0442 15.3109 34.0442 17.5054V40.5829L26.9472 45.0563L20.3285 49.2343L13.2245 46.4138V17.5125C13.2245 15.325 11.4521 13.5455 9.25755 13.5455C9.07467 13.5455 8.8918 13.5595 8.70892 13.5877V11.7097H20.3285V40.9135L26.9543 36.7355V11.7026H38.5598Z" fill="#A5835E"/>
<path id="Vector_2" d="M40.0862 9.7264H7.18264C5.71964 9.7264 4.53094 8.53771 4.53094 7.07471H42.7378C42.7378 8.53771 41.5562 9.7264 40.0862 9.7264Z" fill="#A5835E"/>
<path id="Vector_3" d="M46.2757 0.765137L44.9323 5.61134H2.34343L1 0.765137H46.2757Z" fill="#A5835E"/>
</g>
<g id="Group 115">
<g id="Group_3">
<path id="Vector_4" d="M37.5603 11.7031V13.5811C37.3845 13.553 37.2016 13.5389 37.0117 13.5389C34.8242 13.5389 33.0447 15.3114 33.0447 17.5059V40.5834L25.9477 45.0568L19.329 49.2348L12.225 46.4143V17.5129C12.225 15.3255 10.4525 13.5459 8.25804 13.5459C8.07516 13.5459 7.89229 13.56 7.70941 13.5882V11.7102H19.329V40.914L25.9548 36.736V11.7031H37.5603Z" fill="#05F691"/>
<path id="Vector_5" d="M39.0868 9.7264H6.18331C4.72031 9.7264 3.53162 8.53771 3.53162 7.07471H41.7385C41.7385 8.53771 40.5569 9.7264 39.0868 9.7264Z" fill="#05F691"/>
<path id="Vector_6" d="M45.2757 0.765137L43.9323 5.61134H1.34343L0 0.765137H45.2757Z" fill="#05F691"/>
</g>
<g id="Group_4">
<path id="Vector_7" d="M59.8066 17.772L53.5467 33.5555H50.2057L45.5072 21.6968L45.3876 21.4013L45.268 21.113C45.1555 20.8246 45.0078 20.5503 44.8179 20.3111C44.2552 19.6289 43.4111 19.1928 42.4546 19.1928C42.3139 19.1928 42.1732 19.1998 42.0325 19.2209V17.779H47.3359L51.8656 30.0317L56.4164 17.772H59.8066Z" fill="#05F691"/>
<path id="Vector_8" d="M75.5966 30.7702V33.5555H64.2372V17.772H75.5966L74.3094 20.5643H67.4164V24.2711H74.3094V26.8524H67.4164V30.7702H75.5966Z" fill="#05F691"/>
<path id="Vector_9" d="M80.027 31.874L81.7644 29.4544C81.9191 29.5599 82.1301 29.7006 82.3974 29.8764C82.6576 30.0523 83.1852 30.2774 83.9659 30.5587C84.7466 30.8401 85.4852 30.9807 86.1885 30.9807C87.7992 30.9807 88.6081 30.3899 88.6081 29.2153C88.6081 28.6878 88.3901 28.2657 87.961 27.9422C87.532 27.6186 86.695 27.274 85.45 26.9012C83.6634 26.3737 82.3482 25.7477 81.5041 25.0232C80.6601 24.2987 80.238 23.3281 80.238 22.1183C80.238 20.6975 80.7445 19.5651 81.7644 18.714C82.7842 17.8629 84.2472 17.4409 86.1604 17.4409C87.3702 17.4409 88.4534 17.5746 89.41 17.8489C90.3665 18.1232 91.0066 18.3975 91.3442 18.6788L91.8717 19.0727L90.1626 21.6752C90.043 21.5697 89.8671 21.4501 89.6491 21.3094C89.4311 21.1688 88.9739 20.9789 88.2775 20.7327C87.5812 20.4865 86.8778 20.3669 86.1604 20.3669C84.5989 20.3669 83.8182 20.8944 83.8182 21.9425C83.8182 22.3997 84.0362 22.7654 84.4653 23.0468C84.8943 23.3281 85.6891 23.6446 86.8427 23.9963C88.7207 24.5238 90.0922 25.1639 90.9574 25.9306C91.8225 26.6902 92.2586 27.696 92.2586 28.941C92.2586 30.3969 91.7522 31.5927 90.7323 32.5211C89.7124 33.4496 88.2353 33.9138 86.287 33.9138C85.042 33.9138 83.8956 33.745 82.8546 33.4003C81.8136 33.0557 81.0821 32.718 80.6601 32.3875L80.027 31.874Z" fill="#05F691"/>
<g id="Group_5">
<path id="Vector_10" d="M108.812 17.772L107.525 20.5643H104.106V33.5555H100.92V20.5643H96.2358V17.772H108.812Z" fill="#05F691"/>
<path id="Vector_11" d="M109.226 33.5555L115.486 17.772H118.827L123.525 29.6307L123.645 29.9262L123.764 30.2145C123.877 30.5029 124.025 30.7772 124.215 31.0164C124.777 31.6986 125.621 32.1347 126.578 32.1347C126.719 32.1347 126.859 32.1277 127 32.1066V33.5485H121.697L117.167 21.2958L112.616 33.5555H109.226Z" fill="#05F691"/>
</g>
</g>
</g>
</g>
</svg>
