<svg width="77" height="77" viewBox="0 0 77 77" fill="none" xmlns="http://www.w3.org/2000/svg">
<circle cx="38.5" cy="38.5" r="38.5" fill="url(#paint0_linear_91_14689)"/>
<path d="M54.076 29.6924V31.5887C53.8983 31.5603 53.7136 31.5461 53.5217 31.5461C51.3112 31.5461 49.5131 33.336 49.5131 35.5519V58.8552L42.3417 63.3724L35.6536 67.5913L28.4751 64.7432V35.559C28.4751 33.3502 26.684 31.5532 24.4665 31.5532C24.2817 31.5532 24.0969 31.5674 23.9121 31.5959V29.6995H35.6536V59.189L42.3488 54.9702V29.6924H54.076Z" fill="white"/>
<path d="M55.6185 27.6972H22.3699C20.8916 27.6972 19.6904 26.4968 19.6904 25.0195H58.298C58.298 26.4968 57.1039 27.6972 55.6185 27.6972Z" fill="white"/>
<path d="M61.8726 18.6484L60.5151 23.5421H17.4796L16.1221 18.6484H61.8726Z" fill="white"/>
<defs>
<linearGradient id="paint0_linear_91_14689" x1="-6.67939" y1="21.3637" x2="91.9553" y2="30.086" gradientUnits="userSpaceOnUse">
<stop stop-color="#09B76E"/>
<stop offset="1" stop-color="#E8C016"/>
</linearGradient>
</defs>
</svg>
